<?xml version="1.0" encoding="utf-8"?>
<!-- Generator: Adobe Illustrator 28.0.0, SVG Export Plug-In . SVG Version: 6.00 Build 0)  -->
<svg version="1.1" id="Calque_1" xmlns="http://www.w3.org/2000/svg" xmlns:xlink="http://www.w3.org/1999/xlink" x="0px" y="0px"
	 viewBox="0 0 841.89 595.28" style="enable-background:new 0 0 841.89 595.28;" xml:space="preserve">
<style type="text/css">
	.st0{fill:url(#SVGID_1_);}
</style>
<linearGradient id="SVGID_1_" gradientUnits="userSpaceOnUse" x1="208.9784" y1="181.3404" x2="658.4952" y2="463.1318">
	<stop  offset="0" style="stop-color:#404C9B"/>
	<stop  offset="0.0831" style="stop-color:#4E4D9B"/>
	<stop  offset="0.3667" style="stop-color:#75509B"/>
	<stop  offset="0.624" style="stop-color:#8F519B"/>
	<stop  offset="0.8437" style="stop-color:#9D529B"/>
	<stop  offset="1" style="stop-color:#A1529B"/>
</linearGradient>
<path class="st0" d="M684.49,305.7c-1.7-2.39-4.48-3.89-8.04-4.36c-1.75-0.23-3.51-0.33-5.23-0.29c-12.37,0.27-24.7,3.49-37.69,9.84
	c-28.41,13.88-53.27,33.99-73.89,59.76c-1.34,1.67-2.78,3.39-4.37,4.34c-6.75,4.03-13.59,8.17-20.2,12.19
	c-17.18,10.43-34.95,21.21-52.91,30.85c-47.84,25.71-89.77,39.9-131.94,44.67c-20.81,2.35-39.06,1.73-55.79-1.91
	c-11.39-2.48-21.1-5.8-30.23-10.36c0.08-0.07,0.16-0.14,0.23-0.21c8.06-7.47,16.14-14.92,24.22-22.37
	c17.97-16.56,36.54-33.68,54.56-50.8c103.31-98.21,202.98-198.74,278.26-275.34c1.55-1.58,2.83-3.23,3.8-4.9
	c2.27-3.9,1.62-7.98-1.79-11.19c-7.67-7.22-16.26-7.34-24.19-0.34c-18.46,16.29-39.8,29.37-63.43,38.87
	c-10.26,4.13-19.88,5.33-29.43,3.7c-17.04-2.92-30.79-12.54-40.86-20.58c-2.72-2.18-5.43-4.51-8.05-6.76
	c-3.63-3.12-7.38-6.36-11.31-9.29c-12.5-9.35-26.44-13.73-41.45-12.99c-29.1,1.42-55.81,11.58-81.64,31.05
	c-22.9,17.26-41.19,41.15-55.94,73.05c-3.8,8.23-8.01,19.27-6.75,31.68c0.81,8,5.03,11.72,12.88,11.34
	c13.27-0.62,24.53-6.68,32.86-11.89c18.02-11.27,35.41-26.43,53.15-46.33c8.9-9.98,14.87-19.13,18.79-28.82
	c1.05-2.59,1.56-5.52,1.46-8.25c-0.09-2.22-1.21-3.97-3.01-4.68c-1.85-0.74-4.05-0.17-5.73,1.47c-1.32,1.29-2.18,2.89-2.93,4.31
	c-0.89,1.66-1.73,3.35-2.56,4.99c-1.42,2.83-2.88,5.76-4.53,8.44c-14.25,23.17-34.76,43.18-62.69,61.2
	c-3.11,2.01-6.75,3.65-10.53,4.76c-1.88,0.55-3.35,0.53-4.14-0.05c-0.79-0.59-1.23-2.01-1.25-3.99c-0.03-4.59,0.49-8.52,1.54-11.69
	c9.42-28.4,24.28-52.44,44.16-71.46c14.1-13.49,28.78-22.15,44.88-26.48c14.16-3.81,25.34-2.76,35.19,3.33
	c2.43,1.5,4.88,2.98,7.32,4.46c6.07,3.68,12.34,7.48,18.26,11.53c3.21,2.2,6.33,4.74,9.34,7.2c3.76,3.07,7.65,6.24,11.87,8.89
	c21.28,13.38,44.04,16.87,67.66,10.37c12.08-3.32,23.43-8.61,34.02-14.17c-4.75,5.15-9.51,10.35-14.15,15.41
	c-13.16,14.38-26.77,29.24-40.62,43.38c-58.76,60-118.69,120.83-176.64,179.65c-18.25,18.52-36.5,37.05-54.74,55.58
	c-4.24,4.31-8.62,8.63-12.86,12.8c-2.26,2.23-4.53,4.46-6.78,6.71l-0.28,0.28c-0.14,0.14-0.31,0.32-0.45,0.45
	c-0.04-0.02-0.09-0.05-0.14-0.09c-16.64-11.27-28.71-23.59-36.91-37.67l-0.09-0.15c-9.1-15.63-18.5-31.79-19.6-50.57
	c-0.1-1.68-1.08-3.02-1.86-4.1c-0.28-0.38-0.54-0.74-0.72-1.05l-1.29-2.22l-2.18,1.34c-0.28,0.17-0.64,0.35-1.03,0.53
	c-1.14,0.55-2.56,1.23-3.4,2.61c-0.78,1.29-1.57,2.58-2.37,3.86c-3.07,4.97-6.24,10.11-8.65,15.58
	c-5.69,12.91-9.74,27.74-12.75,46.68c-4.54,28.59-4.35,51.59,0.61,72.36c1.58,6.61,4.42,13.35,8.21,19.51
	c2.5,4.05,5.84,6.64,9.67,7.49c0.94,0.21,1.91,0.31,2.89,0.31c3.27,0,6.74-1.15,10.18-3.41l0.64-0.42c1.4-0.91,2.85-1.85,4.19-2.99
	l7.38-6.24c13.33-11.26,27.12-22.9,40.56-34.51c2.4-2.08,3.35-2.25,5.63-1.07c10.42,5.42,22.3,9.15,36.32,11.4
	c24.75,3.98,50.12,3.11,77.56-2.66c31.26-6.57,63.22-17.91,97.68-34.65c25.87-12.57,52.97-27.94,82.72-46.92
	c-8.09,15.69-10.77,29.52-8.44,43.42c0.97,5.77,2.88,9.49,6.01,11.7c3.09,2.19,7.13,2.75,12.71,1.78
	c12.25-2.14,24.39-6.65,37.12-13.8c14.82-8.32,29.67-17.15,44.03-25.68c8.63-5.13,17.55-10.44,26.37-15.57
	c6.21-3.61,4.27-8.92,3.34-11.47l-1.05-2.89l-4.02,2.5c-0.98,0.61-1.9,1.18-2.83,1.75c-6.17,3.75-12.32,7.53-18.47,11.31
	c-14.74,9.05-29.98,18.41-45.15,27.28c-12.15,7.1-23.42,11.75-34.44,14.21c-5.03,1.12-6.59,0.5-7.08,0.02
	c-0.5-0.49-1.18-2.09-0.16-7.41c1.52-7.87,4.74-15.57,10.12-24.22c20.11-32.35,46.36-60.11,78.02-82.51
	c10.23-7.24,18.64-11.18,27.28-12.78c1.08-0.2,2.4-0.03,3.79,0.17c-0.21,1.4-0.43,2.71-0.95,3.62
	c-5.79,10.05-14.86,17.43-23.64,24.56c-0.51,0.41-1.01,0.82-1.52,1.23c-2.23-1.55-4.58-2.64-6.98-2.07
	c-2.97,0.71-4.69,3.64-6.11,6.71c-1.13,2.44-1.85,4.59-2.21,6.6c-0.92,5.14,1.7,8.8,7,9.77c4.44,0.81,8.76-0.27,12.83-3.23
	c13.89-10.1,24.56-21.38,32.6-34.49c2.05-3.33,3.58-7.46,4.57-12.27C686.59,310.77,686.09,307.94,684.49,305.7z M230.85,458.66
	c-1.48,1.65-2.96,3.31-4.45,4.98c-4.96,5.56-10.08,11.31-15.41,16.71c-5.17,5.24-10.85,10.23-16.33,15.06
	c-1.42,1.25-2.85,2.5-4.27,3.76c-1.6,1.42-2.83,2.1-3.71,2c-0.9-0.09-2.06-1.07-3.44-2.91c-4.49-5.98-5.78-13.34-6.8-20.98
	c-3.42-25.58-3.99-50.63-1.72-74.46c0.3-3.15,0.73-4.95,1.56-6.41C192.59,425.79,210.04,445.7,230.85,458.66z"/>
</svg>
